<svg width="844" height="281" viewBox="0 0 844 281" fill="none" xmlns="http://www.w3.org/2000/svg">
<path d="M39.9207 155.623C42.6307 179.123 48.6307 203.643 61.1107 223.923C65.7407 231.453 77.3607 241.123 72.7907 249.993C67.9407 259.403 56.1207 258.183 48.9107 252.133C33.0107 238.793 19.5007 199.923 15.2307 179.813C14.0307 174.183 12.2907 155.263 10.7307 152.313C9.92074 150.773 5.08074 149.143 2.92074 146.123C-1.23926 140.333 -1.13926 132.383 4.41074 127.603C5.93074 126.293 9.20074 125.723 9.77074 123.963C11.0307 120.093 10.4207 109.073 11.0507 104.243C15.9207 67.1332 35.6707 29.9332 68.9007 11.0932C141.081 -29.8168 194.791 50.9632 147.341 114.533C121.881 148.633 81.9707 163.943 39.9207 155.613V155.623ZM101.671 29.8832C73.4707 33.2432 48.0007 69.0532 41.5907 94.8032C40.4307 99.4732 35.9307 123.903 38.8907 126.143C79.2807 138.773 132.831 111.183 136.791 67.0032C138.671 45.9732 123.801 27.2432 101.671 29.8832Z" fill="black"/>
<path d="M696.631 37.8331C713.191 34.1131 719.801 53.5631 725.091 65.9531C746.631 116.323 758.521 188.943 719.891 234.093C681.571 278.873 644.491 229.163 629.451 192.593C616.271 160.553 610.711 118.693 613.941 84.1431C614.871 74.1731 619.701 65.7731 630.971 68.0631C646.511 71.2131 639.721 94.6731 639.881 106.173C640.321 137.773 651.511 187.983 672.951 212.093C684.171 224.713 690.951 224.753 701.341 211.543C728.761 176.663 716.321 112.353 697.101 75.9531C692.071 66.4231 684.001 62.6031 685.991 50.1931C686.711 45.7031 692.071 38.8631 696.631 37.8431V37.8331Z" fill="black"/>
<path d="M240.341 208.043C238.081 209.713 235.741 212.873 233.251 214.453C223.141 220.913 208.521 223.023 199.941 213.093C188.961 200.393 185.421 174.343 186.931 158.133C187.631 150.613 190.671 142.003 199.391 141.543C219.451 140.473 210.831 162.993 212.031 174.993C212.301 177.733 215.061 190.983 217.511 191.553C228.931 189.433 234.681 167.263 244.471 165.673C258.891 163.333 259.281 176.733 264.101 185.933C268.561 194.453 278.431 204.323 288.971 202.173C307.501 198.403 297.761 179.383 293.091 167.933C288.631 157.003 279.381 143.273 276.141 132.883C269.561 111.743 294.751 105.073 304.091 121.933C307.641 128.353 311.421 137.713 314.381 144.643C323.561 166.083 337.091 192.743 320.421 213.623C298.341 241.273 260.791 233.903 243.411 205.623C242.481 206.543 241.371 207.263 240.331 208.033L240.341 208.043Z" fill="black"/>
<path d="M367.661 129.863C377.981 128.103 390.651 132.503 399.591 137.453C409.471 142.923 424.061 154.043 413.891 166.093C401.851 180.353 390.651 158.033 379.181 155.853C374.221 154.913 369.891 157.233 371.361 162.643C373.361 170.003 395.501 185.793 401.951 193.103C419.271 212.743 428.801 243.113 409.891 265.103C394.511 282.983 370.251 283.463 349.141 276.913C342.131 274.743 322.491 266.293 317.431 261.623C308.931 253.773 312.591 238.463 324.571 237.993C331.121 237.733 347.071 248.153 355.391 250.663C368.881 254.733 393.441 256.963 392.851 236.293C391.921 203.593 341.351 194.503 346.031 154.243C347.281 143.513 356.761 131.733 367.661 129.873V129.863Z" fill="black"/>
<path d="M144.921 196.613C141.651 188.483 130.611 185.753 122.681 186.893C114.881 188.013 106.021 196.553 98.5208 188.523C88.7308 178.033 100.341 165.463 110.931 162.133C153.181 148.833 178.651 188.203 184.611 224.443C186.801 237.793 188.721 244.663 176.841 253.043C156.471 267.423 117.251 275.293 102.131 249.933C85.1908 221.523 121.041 200.553 144.931 196.623L144.921 196.613ZM153.721 219.813C148.231 220.223 121.461 227.703 124.441 235.663C127.741 244.473 147.451 238.823 153.601 235.803C161.571 231.883 160.031 225.923 155.271 219.733C154.741 219.563 154.241 219.773 153.721 219.813Z" fill="black"/>
<path d="M802.261 163.283C805.731 167.223 813.231 171.673 817.441 175.603C836.301 193.183 852.211 217.633 837.081 243.303C818.791 274.323 778.921 265.793 752.891 250.153C745.281 245.583 740.181 239.973 744.401 230.633C751.061 215.893 768.691 229.263 778.391 232.653C791.131 237.113 814.851 242.403 815.951 222.103C817.151 199.963 781.781 187.863 774.611 167.433C764.461 138.503 804.281 114.043 825.421 137.623C834.081 147.273 829.681 163.303 815.631 160.413C810.681 159.393 805.961 151.023 800.891 154.123C797.341 156.293 800.261 161.053 802.241 163.303L802.261 163.283Z" fill="black"/>
<path d="M495.791 185.543C515.561 147.523 559.071 160.013 573.691 195.353C579.291 208.883 581.391 226.593 579.981 241.163C578.281 258.703 553.541 260.523 551.041 240.003C549.591 228.063 552.311 218.163 547.131 205.913C536.201 180.023 515.461 191.933 515.311 216.953C515.251 226.893 523.061 243.513 511.471 249.663C500.431 255.523 493.341 246.703 489.881 237.153C487.471 230.503 477.811 201.323 477.831 196.103C477.881 186.263 487.281 182.263 495.781 185.543H495.791Z" fill="black"/>
<path d="M538.641 99.8532C569.321 93.5032 563.291 150.363 537.421 149.703C512.641 149.073 518.821 103.953 538.641 99.8532Z" fill="black"/>
<path d="M483.631 90.8432C489.151 89.5632 490.471 91.8832 493.591 92.3232C495.041 92.5232 496.781 91.4732 498.431 91.5332C520.591 92.3832 517.421 141.823 491.511 138.533C472.651 136.143 468.981 94.2532 483.631 90.8432Z" fill="black"/>
<path d="M581.711 124.833C610.761 121.933 596.521 173.523 571.641 168.383C551.411 164.203 559.811 127.013 581.711 124.833Z" fill="black"/>
<path d="M450.651 116.853C471.081 112.653 486.831 149.403 472.661 158.853C464.501 164.293 455.811 161.023 450.731 153.323C445.111 144.783 434.721 120.133 450.651 116.863V116.853Z" fill="black"/>
<path d="M153.721 219.813C154.241 219.773 154.741 219.563 155.271 219.733C160.021 225.923 161.571 231.883 153.601 235.803C147.451 238.823 127.731 244.473 124.441 235.663C121.461 227.703 148.231 220.223 153.721 219.813Z" fill="white"/>
</svg>
